<svg width="14" height="14" viewBox="0 0 14 14" fill="none" xmlns="http://www.w3.org/2000/svg">
<path d="M4.30719 7.4375H5.31781L4.8125 5.98227L4.30719 7.4375ZM9.625 7C9.26324 7 8.96875 7.29449 8.96875 7.65625C8.96875 8.01801 9.26324 8.3125 9.625 8.3125C9.98676 8.3125 10.2812 8.01801 10.2812 7.65625C10.2812 7.29449 9.98676 7 9.625 7ZM12.6875 1.75H1.3125C0.587891 1.75 0 2.33789 0 3.0625V10.9375C0 11.6621 0.587891 12.25 1.3125 12.25H12.6875C13.4121 12.25 14 11.6621 14 10.9375V3.0625C14 2.33789 13.4121 1.75 12.6875 1.75ZM6.8518 9.625H6.38859C6.20238 9.625 6.03641 9.50688 5.97516 9.33105L5.77363 8.75H3.85164L3.64984 9.33105C3.62001 9.41693 3.56417 9.49139 3.49008 9.54407C3.41598 9.59674 3.32732 9.62503 3.23641 9.625H2.7732C2.47215 9.625 2.26105 9.32832 2.35977 9.04395L3.82812 4.81578C3.87286 4.68702 3.95659 4.57539 4.06768 4.4964C4.17877 4.41741 4.3117 4.37498 4.44801 4.375H5.17699C5.31334 4.37498 5.44631 4.41744 5.5574 4.49649C5.6685 4.57553 5.7522 4.68723 5.79688 4.81605L7.26496 9.04395C7.36367 9.32832 7.15258 9.625 6.8518 9.625ZM11.5938 9.1875C11.5938 9.42922 11.398 9.625 11.1562 9.625H10.7188C10.5861 9.625 10.4716 9.56293 10.3912 9.46969C10.1555 9.56977 9.89652 9.625 9.625 9.625C8.53945 9.625 7.65625 8.7418 7.65625 7.65625C7.65625 6.5707 8.53945 5.6875 9.625 5.6875C9.85633 5.6875 10.0751 5.7348 10.2812 5.80836V4.8125C10.2812 4.57078 10.477 4.375 10.7188 4.375H11.1562C11.398 4.375 11.5938 4.57078 11.5938 4.8125V9.1875Z" fill="#828282"/>
</svg>
