<svg width="8" height="8" viewBox="0 0 8 8" fill="none" xmlns="http://www.w3.org/2000/svg">
<path d="M3.47656 1.04532L3.82344 0.698444C3.97031 0.551569 4.20781 0.551569 4.35313 0.698444L7.39063 3.73438C7.5375 3.88126 7.5375 4.11876 7.39063 4.26407L4.35313 7.30157C4.20625 7.44844 3.96875 7.44844 3.82344 7.30157L3.47656 6.95469C3.32813 6.80626 3.33125 6.56407 3.48281 6.41876L5.36563 4.62501H0.875C0.667188 4.62501 0.5 4.45782 0.5 4.25001V3.75001C0.5 3.54219 0.667188 3.37501 0.875 3.37501H5.36563L3.48281 1.58126C3.32969 1.43594 3.32656 1.19376 3.47656 1.04532Z" fill="white"/>
</svg>
