<svg width="17" height="17" viewBox="0 0 17 17" fill="none" xmlns="http://www.w3.org/2000/svg">
<path d="M9.6125 14.7787L8.87539 15.5158C8.56328 15.828 8.05859 15.828 7.7498 15.5158L1.29512 9.06448C0.983008 8.75237 0.983008 8.24768 1.29512 7.93889L7.7498 1.4842C8.06191 1.17209 8.5666 1.17209 8.87539 1.4842L9.6125 2.22131C9.92793 2.53674 9.92129 3.05139 9.59922 3.36018L5.59824 7.1719H15.1408C15.5824 7.1719 15.9377 7.52717 15.9377 7.96878V9.03128C15.9377 9.47288 15.5824 9.82815 15.1408 9.82815H5.59824L9.59922 13.6399C9.92461 13.9487 9.93125 14.4633 9.6125 14.7787Z" fill="#2CB3FC"/>
</svg>
