<svg width="15" height="15" viewBox="0 0 15 15" fill="none" xmlns="http://www.w3.org/2000/svg">
<path d="M1.40625 3.86719H13.5938C13.8526 3.86719 14.0625 3.65733 14.0625 3.39844V2.22656C14.0625 1.96767 13.8526 1.75781 13.5938 1.75781H1.40625C1.14735 1.75781 0.9375 1.96767 0.9375 2.22656V3.39844C0.9375 3.65733 1.14735 3.86719 1.40625 3.86719ZM1.40625 8.55469H13.5938C13.8526 8.55469 14.0625 8.34483 14.0625 8.08594V6.91406C14.0625 6.65517 13.8526 6.44531 13.5938 6.44531H1.40625C1.14735 6.44531 0.9375 6.65517 0.9375 6.91406V8.08594C0.9375 8.34483 1.14735 8.55469 1.40625 8.55469ZM1.40625 13.2422H13.5938C13.8526 13.2422 14.0625 13.0323 14.0625 12.7734V11.6016C14.0625 11.3427 13.8526 11.1328 13.5938 11.1328H1.40625C1.14735 11.1328 0.9375 11.3427 0.9375 11.6016V12.7734C0.9375 13.0323 1.14735 13.2422 1.40625 13.2422Z" fill="#2CB3FC"/>
</svg>
