<svg width="100" height="100" viewBox="0 0 100 100" fill="none" xmlns="http://www.w3.org/2000/svg">
<path d="M18.75 93.75H81.25V78.125C81.2434 72.3254 78.9366 66.7653 74.8357 62.6643C70.7347 58.5634 65.1746 56.2566 59.375 56.25H40.625C34.8254 56.2566 29.2653 58.5634 25.1643 62.6643C21.0634 66.7653 18.7566 72.3254 18.75 78.125V93.75Z" fill="white"/>
<path d="M28.125 28.125C28.125 32.4515 29.4079 36.6808 31.8116 40.2781C34.2153 43.8754 37.6317 46.6792 41.6288 48.3349C45.6259 49.9905 50.0243 50.4237 54.2676 49.5797C58.5109 48.7356 62.4087 46.6522 65.468 43.593C68.5272 40.5337 70.6106 36.6359 71.4547 32.3926C72.2987 28.1493 71.8655 23.7509 70.2099 19.7538C68.5542 15.7567 65.7504 12.3403 62.1531 9.9366C58.5558 7.53295 54.3265 6.25 50 6.25C44.1984 6.25 38.6344 8.55468 34.532 12.657C30.4297 16.7594 28.125 22.3234 28.125 28.125Z" fill="white"/>
</svg>
