<svg width="13" height="13" viewBox="0 0 13 13" fill="none" xmlns="http://www.w3.org/2000/svg">
<path d="M1.93256 9.53267L2.00045 9.25894L1.80131 9.05925C0.976749 8.23237 0.5 7.20202 0.5 6.09375C0.5 3.54454 3.08387 1.3125 6.5 1.3125C9.91613 1.3125 12.5 3.54454 12.5 6.09375C12.5 8.64296 9.91613 10.875 6.5 10.875C5.58679 10.875 4.72466 10.7062 3.94908 10.4144L3.68344 10.3145L3.46148 10.4914C2.96711 10.8852 2.06142 11.4722 0.867789 11.6407C0.925981 11.5625 0.987092 11.4775 1.0495 11.3866C1.37132 10.9179 1.7532 10.2558 1.93256 9.53267Z" stroke="#2CB3FC"/>
</svg>
