<svg width="12" height="13" viewBox="0 0 12 13" fill="none" xmlns="http://www.w3.org/2000/svg">
<path d="M4.19034 11.8567V9.92554C4.19034 9.43257 4.5929 9.03294 5.08948 9.03294H6.90473C7.1432 9.03294 7.3719 9.12698 7.54052 9.29437C7.70914 9.46177 7.80387 9.68881 7.80387 9.92554V11.8567C7.80237 12.0617 7.88332 12.2587 8.02878 12.4042C8.17423 12.5496 8.37215 12.6314 8.57861 12.6314H9.81705C10.3954 12.6329 10.9507 12.4059 11.3602 12.0004C11.7697 11.5949 11.9999 11.0443 11.9999 10.4701V4.96849C11.9999 4.50466 11.7928 4.0647 11.4344 3.76712L7.22141 0.42686C6.48856 -0.158801 5.43854 -0.139892 4.72756 0.471771L0.610738 3.76712C0.235413 4.05593 0.0110855 4.49719 0 4.96849V10.4645C0 11.6613 0.977283 12.6314 2.18282 12.6314H3.39299C3.82179 12.6314 4.17027 12.288 4.17338 11.8623L4.19034 11.8567Z" fill="#2CB3FC"/>
</svg>
