<svg width="13" height="13" viewBox="0 0 13 13" fill="none" xmlns="http://www.w3.org/2000/svg">
<path d="M5.49816 2.70833C4.98913 2.7001 4.49265 2.86657 4.09149 3.18001C3.69032 3.49346 3.4087 3.93492 3.29357 4.43083C3.22747 4.74643 3.23265 5.0728 3.30872 5.38615C3.38479 5.69949 3.52984 5.99191 3.73329 6.24207C3.93674 6.49223 4.19346 6.69383 4.48472 6.83216C4.77599 6.97049 5.09446 7.04206 5.41691 7.04166V10.2917H6.50024V3.79166H7.58357V10.2917H8.66691V3.79166H9.75024V2.70833H5.49816ZM4.33357 4.875C4.33357 4.58768 4.44771 4.31213 4.65088 4.10896C4.85404 3.9058 5.12959 3.79166 5.41691 3.79166V5.95833C5.12959 5.95833 4.85404 5.84419 4.65088 5.64103C4.44771 5.43786 4.33357 5.16231 4.33357 4.875Z" fill="#434343"/>
</svg>
