<svg width="13" height="13" viewBox="0 0 13 13" fill="none" xmlns="http://www.w3.org/2000/svg">
<path d="M6.49513 1.62501C5.53115 1.62597 4.5891 1.9127 3.78805 2.44896C2.987 2.98522 2.36292 3.74692 1.99469 4.6378C1.62646 5.52867 1.53062 6.50872 1.71927 7.45406C1.90792 8.39939 2.37261 9.26758 3.05458 9.94887C3.73655 10.6302 4.6052 11.094 5.55073 11.2817C6.49625 11.4694 7.4762 11.3726 8.36671 11.0034C9.25721 10.6343 10.0183 10.0095 10.5538 9.2079C11.0892 8.40632 11.375 7.46398 11.375 6.50001C11.3753 5.85931 11.2493 5.22485 11.0041 4.63292C10.7589 4.041 10.3994 3.50324 9.94613 3.05043C9.49286 2.59762 8.95475 2.23864 8.36258 1.99405C7.77041 1.74946 7.13582 1.62405 6.49513 1.62501ZM6.5 10.2917C5.75008 10.2917 5.017 10.0693 4.39346 9.65266C3.76993 9.23603 3.28394 8.64385 2.99696 7.95101C2.70998 7.25818 2.63489 6.4958 2.78119 5.76029C2.92749 5.02478 3.28861 4.34917 3.81889 3.81889C4.34916 3.28862 5.02477 2.9275 5.76028 2.78119C6.4958 2.63489 7.25817 2.70998 7.95101 2.99696C8.64385 3.28394 9.23602 3.76993 9.65266 4.39347C10.0693 5.017 10.2917 5.75008 10.2917 6.50001C10.2918 6.99797 10.1938 7.49109 10.0033 7.95118C9.81282 8.41126 9.53354 8.82931 9.18142 9.18142C8.8293 9.53354 8.41126 9.81283 7.95117 10.0033C7.49108 10.1938 6.99797 10.2918 6.5 10.2917ZM8.18188 7.47501H8.996C8.80015 7.97767 8.45709 8.40949 8.01173 8.71393C7.56637 9.01837 7.03947 9.18126 6.5 9.18126C5.96053 9.18126 5.43363 9.01837 4.98827 8.71393C4.54291 8.40949 4.19985 7.97767 4.004 7.47501H4.81813C4.98777 7.77124 5.23264 8.01742 5.52798 8.18862C5.82331 8.35983 6.15863 8.45 6.5 8.45C6.84137 8.45 7.17669 8.35983 7.47202 8.18862C7.76736 8.01742 8.01223 7.77124 8.18188 7.47501ZM4.0625 5.28126C4.0625 5.13663 4.10539 4.99525 4.18574 4.87499C4.26609 4.75474 4.3803 4.66102 4.51391 4.60567C4.64753 4.55032 4.79456 4.53584 4.93641 4.56406C5.07826 4.59227 5.20856 4.66192 5.31082 4.76418C5.41309 4.86645 5.48274 4.99675 5.51095 5.1386C5.53917 5.28044 5.52469 5.42747 5.46934 5.56109C5.41399 5.69471 5.32027 5.80892 5.20001 5.88927C5.07976 5.96962 4.93838 6.01251 4.79375 6.01251C4.59981 6.01251 4.41382 5.93546 4.27668 5.79833C4.13954 5.66119 4.0625 5.47519 4.0625 5.28126ZM7.475 5.28126C7.475 5.13663 7.51789 4.99525 7.59824 4.87499C7.67859 4.75474 7.7928 4.66102 7.92641 4.60567C8.06003 4.55032 8.20706 4.53584 8.34891 4.56406C8.49076 4.59227 8.62106 4.66192 8.72332 4.76418C8.82559 4.86645 8.89524 4.99675 8.92345 5.1386C8.95167 5.28044 8.93719 5.42747 8.88184 5.56109C8.82649 5.69471 8.73277 5.80892 8.61251 5.88927C8.49226 5.96962 8.35088 6.01251 8.20625 6.01251C8.01231 6.01251 7.82632 5.93546 7.68918 5.79833C7.55204 5.66119 7.475 5.47519 7.475 5.28126Z" fill="#434343"/>
</svg>
