<svg width="14" height="14" viewBox="0 0 14 14" fill="none" xmlns="http://www.w3.org/2000/svg">
<path d="M13.125 11.8125V2.1875C13.125 1.46289 12.5371 0.875 11.8125 0.875H2.1875C1.46289 0.875 0.875 1.46289 0.875 2.1875V11.8125C0.875 12.5371 1.46289 13.125 2.1875 13.125H11.8125C12.5371 13.125 13.125 12.5371 13.125 11.8125ZM3.9375 5.25C3.69578 5.25 3.5 5.05422 3.5 4.8125V3.9375C3.5 3.69578 3.69578 3.5 3.9375 3.5H7.4375C7.67922 3.5 7.875 3.69578 7.875 3.9375V4.8125C7.875 5.05422 7.67922 5.25 7.4375 5.25H3.9375ZM3.9375 7.875C3.69578 7.875 3.5 7.67922 3.5 7.4375V6.5625C3.5 6.32078 3.69578 6.125 3.9375 6.125H10.0625C10.3042 6.125 10.5 6.32078 10.5 6.5625V7.4375C10.5 7.67922 10.3042 7.875 10.0625 7.875H3.9375ZM3.9375 10.5C3.69578 10.5 3.5 10.3042 3.5 10.0625V9.1875C3.5 8.94578 3.69578 8.75 3.9375 8.75H5.6875C5.92922 8.75 6.125 8.94578 6.125 9.1875V10.0625C6.125 10.3042 5.92922 10.5 5.6875 10.5H3.9375Z" fill="#828282"/>
</svg>
