<svg width="20" height="17" viewBox="0 0 20 17" fill="none" xmlns="http://www.w3.org/2000/svg">
<path fill-rule="evenodd" clip-rule="evenodd" d="M18.3333 1.25C18.5616 1.25443 18.7456 1.43841 18.75 1.66667V15C18.75 15.2347 18.5597 15.425 18.325 15.425H1.66667C1.43521 15.4205 1.25 15.2315 1.25 15V1.66667C1.25443 1.43841 1.43841 1.25443 1.66667 1.25H18.3333ZM18.3333 0H1.66667C0.746192 0 0 0.746192 0 1.66667V15C0 15.9205 0.746192 16.6667 1.66667 16.6667H18.3333C19.2538 16.6667 20 15.9205 20 15V1.66667C20 0.746192 19.2538 0 18.3333 0Z" fill="#212529"/>
<path d="M0.966797 4.15851H18.8918" stroke="#212529" stroke-width="1.25" stroke-linecap="round" stroke-linejoin="round"/>
<path d="M0.991699 7.5H18.9167" stroke="#212529" stroke-width="1.25" stroke-linecap="round" stroke-linejoin="round"/>
<path d="M4.1665 12.5H9.1665" stroke="#212529" stroke-width="1.25" stroke-linecap="round" stroke-linejoin="round"/>
<path d="M14.1665 12.5H15.8332" stroke="#212529" stroke-width="1.25" stroke-linecap="round" stroke-linejoin="round"/>
</svg>
